<svg xmlns="http://www.w3.org/2000/svg" viewBox="0 0 16 16" opacity=".5"><style>.st2{opacity:.5;fill:#000}.st4{fill:#000;stroke:#000;stroke-miterlimit:10;stroke-width:0.25}</style><path class="st2" d="M5.2 5.5h-3c-.1 0-.2-.1-.2-.3v-3c0-.1.1-.2.3-.2h3c.1 0 .3.1.3.3v3c-.1.1-.2.2-.4.2z"/><path class="st2" d="M13.8 9.2h-3c-.1 0-.3-.1-.3-.3V6c0-.1.1-.3.3-.3h3c.1.1.2.2.2.3v3c0 .1-.1.2-.2.2z"/><path class="st2" d="M8.4 14h-3c-.1 0-.3-.1-.3-.3v-3c0-.1.1-.3.3-.3h3c.1 0 .3.1.3.3v3c0 .2-.2.3-.3.3z"/><path class="st4" d="M 7.3333 13.9667 q -2.0167 -0.25 -3.3417 -1.7583 T 2.6667 8.6667 q 0 -1.1 0.4333 -2.1083 T 4.3333 4.8 l 0.95 0.95 q -0.6333 0.5667 -0.9583 1.3167 T 4 8.6667 q 0 1.4667 0.9333 2.5917 T 7.3333 12.6333 v 1.3333 Z m 1.3333 0 v -1.3333 q 1.45 -0.2667 2.3917 -1.3833 T 12 8.6667 q 0 -1.6667 -1.1667 -2.8333 t -2.8333 -1.1667 h -0.05 l 0.7333 0.7333 l -0.9333 0.9333 l -2.3333 -2.3333 l 2.3333 -2.3333 l 0.9333 0.9333 l -0.7333 0.7333 h 0.05 q 2.2333 0 3.7833 1.55 t 1.55 3.7833 q 0 2.0167 -1.325 3.525 T 8.6667 13.9667 Z"/></svg>